Special 26 2013 Hindi Movies Best CamRip XviD Sample Included ~ rDX

Screen Shots :
 
http://myimghosting.serveftp.com/Special26.html
 
http://myimghost.cwahi.net/Special26.html


Format                                   : AVI
Format/Info                              : Audio Video Interleave
File size                                : 702 MiB
Duration                                 : 2h 13mn
Overall bit rate                         : 734 Kbps
Writing library                          : MPlayer

Video
ID                                       : 0
Format                                   : MPEG-4 Visual
Format profile                           : Advanced Simple@L1
Format settings, BVOP                    : 2
Format settings, QPel                    : No
Format settings, GMC                     : No warppoints
Format settings, Matrix                  : Default (H.263)
Codec ID                                 : DIVX
Codec ID/Info                            : Project Mayo
Codec ID/Hint                            : DivX 4
Duration                                 : 2h 13mn
Bit rate                                 : 601 Kbps
Width                                    : 352 pixels
Height                                   : 176 pixels
Display aspect ratio                     : 2.000
Frame rate                               : 25.000 fps
Color space                              : YUV
Chroma subsampling                       : 4:2:0
Bit depth                                : 8 bits
Scan type                                : Progressive
Compression mode                         : Lossy
Bits/(Pixel*Frame)                       : 0.388
Stream size                              : 575 MiB (82%)
Writing library                          : Lavc54.59.100

Audio
ID                                       : 1
Format                                   : MPEG Audio
Format version                           : Version 1
Format profile                           : Layer 3
Codec ID                                 : 55
Codec ID/Hint                            : MP3
Duration                                 : 2h 13mn
Bit rate mode                            : Constant
Bit rate                                 : 128 Kbps
Channel(s)                               : 2 channels
Sampling rate                            : 48.0 KHz
Compression mode                         : Lossy
Stream size                              : 122 MiB (17%)
Alignment                                : Split accross interleaves
Interleave, duration                     : 500 ms (12.50 video frames)
Interleave, preload duration             : 500 ms
Writing library                          : LAME3.98Æœ¬´iÀ#Œ„